<svg width="59" height="58" viewBox="0 0 59 58" fill="none" xmlns="http://www.w3.org/2000/svg">
<path d="M30.5 32.8333L26.54 28.7083M30.46 28.7499L26.5 32.8749M32.5 20.1874C35.83 20.3749 37.5 21.6562 37.5 26.4166V32.6666C37.5 36.8333 36.5 38.9166 31.5 38.9166H25.5C20.5 38.9166 19.5 36.8333 19.5 32.6666V26.4166C19.5 21.6666 21.17 20.3749 24.5 20.1874M26.5 22.2499H30.5C32.5 22.2499 32.5 21.2083 32.5 20.1666C32.5 18.0833 31.5 18.0833 30.5 18.0833H26.5C25.5 18.0833 24.5 18.0833 24.5 20.1666C24.5 22.2499 25.5 22.2499 26.5 22.2499Z" stroke="#909091" stroke-width="1.5" stroke-miterlimit="10" stroke-linecap="round" stroke-linejoin="round"/>
<g filter="url(#filter0_f_1142_1333)">
<circle cx="29.5" cy="29" r="24.5" stroke="#1A1A1C"/>
</g>
<circle cx="29.5" cy="29" r="24" stroke="#E9E9EA"/>
<defs>
<filter id="filter0_f_1142_1333" x="0.5" y="0" width="58" height="58" filterUnits="userSpaceOnUse" color-interpolation-filters="sRGB">
<feFlood flood-opacity="0" result="BackgroundImageFix"/>
<feBlend mode="normal" in="SourceGraphic" in2="BackgroundImageFix" result="shape"/>
<feGaussianBlur stdDeviation="2" result="effect1_foregroundBlur_1142_1333"/>
</filter>
</defs>
</svg>
