<svg width="59" height="58" viewBox="0 0 59 58" fill="none" xmlns="http://www.w3.org/2000/svg">
<path d="M32 22.2499H37M34.5 24.8541V19.6458M38.47 35.0937C38.47 35.4687 38.39 35.8541 38.22 36.2291C38.05 36.6041 37.83 36.9583 37.54 37.2916C37.05 37.8541 36.51 38.2603 35.9 38.5208C35.3 38.7812 34.65 38.9166 33.95 38.9166C32.93 38.9166 31.84 38.6666 30.69 38.1562C29.54 37.6458 28.39 36.9583 27.25 36.0937C26.1 35.2187 25.01 34.2499 23.97 33.177C22.94 32.0937 22.01 30.9583 21.18 29.7708C20.36 28.5833 19.7 27.3958 19.22 26.2187C18.74 25.0312 18.5 23.8958 18.5 22.8124C18.5 22.1041 18.62 21.427 18.86 20.802C19.1 20.1666 19.48 19.5833 20.01 19.0624C20.65 18.4062 21.35 18.0833 22.09 18.0833C22.37 18.0833 22.65 18.1458 22.9 18.2708C23.16 18.3958 23.39 18.5833 23.57 18.8541L25.89 22.2603C26.07 22.5208 26.2 22.7603 26.29 22.9895C26.38 23.2083 26.43 23.427 26.43 23.6249C26.43 23.8749 26.36 24.1249 26.22 24.3645C26.09 24.6041 25.9 24.8541 25.66 25.1041L24.9 25.927C24.79 26.0416 24.74 26.177 24.74 26.3437C24.74 26.427 24.75 26.4999 24.77 26.5833C24.8 26.6666 24.83 26.7291 24.85 26.7916C25.03 27.1353 25.34 27.5833 25.78 28.1249C26.23 28.6666 26.71 29.2187 27.23 29.7708C27.77 30.3228 28.29 30.8333 28.82 31.302C29.34 31.7603 29.77 32.0728 30.11 32.2603C30.16 32.2812 30.22 32.3124 30.29 32.3437C30.37 32.3749 30.45 32.3853 30.54 32.3853C30.71 32.3853 30.84 32.3228 30.95 32.2083L31.71 31.427C31.96 31.1666 32.2 30.9687 32.43 30.8437C32.66 30.6978 32.89 30.6249 33.14 30.6249C33.33 30.6249 33.53 30.6666 33.75 30.7603C33.97 30.8541 34.2 30.9895 34.45 31.1666L37.76 33.6145C38.02 33.802 38.2 34.0208 38.31 34.2812C38.41 34.5416 38.47 34.802 38.47 35.0937Z" stroke="#A2A4AB" stroke-width="1.5" stroke-linecap="round"/>
<g filter="url(#filter0_f_1142_2192)">
<circle cx="29.5" cy="29" r="24.5" stroke="#1A1A1C"/>
</g>
<circle cx="29.5" cy="29" r="24" stroke="#E9E9EA"/>
<defs>
<filter id="filter0_f_1142_2192" x="0.5" y="0" width="58" height="58" filterUnits="userSpaceOnUse" color-interpolation-filters="sRGB">
<feFlood flood-opacity="0" result="BackgroundImageFix"/>
<feBlend mode="normal" in="SourceGraphic" in2="BackgroundImageFix" result="shape"/>
<feGaussianBlur stdDeviation="2" result="effect1_foregroundBlur_1142_2192"/>
</filter>
</defs>
</svg>
