<svg width="59" height="58" viewBox="0 0 59 58" fill="none" xmlns="http://www.w3.org/2000/svg">
<path d="M28.5 31H29.7C31.02 31 32.1 29.875 32.1 28.5M32.1 28.5V16H21.3C19.5 16 17.928 17.0375 17.112 18.5625M32.1 28.5V19.75H34.308C35.172 19.75 35.964 20.2375 36.396 21.0125L38.448 24.75M16.5 34.75C16.5 36.825 18.108 38.5 20.1 38.5H21.3M21.3 38.5C21.3 37.125 22.38 36 23.7 36M21.3 38.5C21.3 39.8807 22.3745 41 23.7 41C25.0255 41 26.1 39.8807 26.1 38.5M21.3 38.5C21.3 37.1193 22.3745 36 23.7 36M23.7 36C25.02 36 26.1 37.125 26.1 38.5M23.7 36C25.0255 36 26.1 37.1193 26.1 38.5M26.1 38.5H30.9M30.9 38.5C30.9 37.125 31.98 36 33.3 36M30.9 38.5C30.9 39.8807 31.9745 41 33.3 41C34.6255 41 35.7 39.8807 35.7 38.5M30.9 38.5C30.9 37.1193 31.9745 36 33.3 36M33.3 36C34.62 36 35.7 37.125 35.7 38.5M33.3 36C34.6255 36 35.7 37.1193 35.7 38.5M35.7 38.5H36.9C38.892 38.5 40.5 36.825 40.5 34.75V31M40.5 31H36.9C36.24 31 35.7 30.4375 35.7 29.75V26C35.7 25.3125 36.24 24.75 36.9 24.75H38.448M40.5 31V28.5L38.448 24.75M16.5 23.5H23.7M16.5 27.25H21.3M16.5 31H18.9" stroke="#B5B5B5" stroke-width="1.5" stroke-linecap="round" stroke-linejoin="round"/>
<g filter="url(#filter0_f_1142_434)">
<circle cx="29.5" cy="29" r="24.5" stroke="#1A1A1C"/>
</g>
<circle cx="29.5" cy="29" r="24" stroke="#E9E9EA"/>
<defs>
<filter id="filter0_f_1142_434" x="0.5" y="0" width="58" height="58" filterUnits="userSpaceOnUse" color-interpolation-filters="sRGB">
<feFlood flood-opacity="0" result="BackgroundImageFix"/>
<feBlend mode="normal" in="SourceGraphic" in2="BackgroundImageFix" result="shape"/>
<feGaussianBlur stdDeviation="2" result="effect1_foregroundBlur_1142_434"/>
</filter>
</defs>
</svg>
